<?plantuml 1.2026.2?><svg xmlns="http://www.w3.org/2000/svg" xmlns:xlink="http://www.w3.org/1999/xlink" contentStyleType="text/css" data-diagram-type="ACTIVITY" height="428px" preserveAspectRatio="none" style="width:257px;height:428px;background:#FFFFFF;" version="1.1" viewBox="0 0 257 428" width="257px" zoomAndPan="magnify"><defs/><g><path d="M10,10 L10,50.2656 L245.5317,50.2656 L245.5317,20 L235.5317,10 L10,10" fill="#FEFFDD" style="stroke:#181818;stroke-width:0.5;"/><path d="M235.5317,10 L235.5317,20 L245.5317,20 L235.5317,10" fill="#FEFFDD" style="stroke:#181818;stroke-width:0.5;"/><text fill="#000000" font-family="sans-serif" font-size="13" lengthAdjust="spacing" textLength="143.457" x="16" y="27.0669">all tasks are executed</text><text fill="#000000" font-family="sans-serif" font-size="13" lengthAdjust="spacing" textLength="214.5317" x="16" y="42.1997">only if rust source files are found</text><rect fill="none" height="259.3047" style="stroke:#000000;stroke-width:1.5;" width="200" x="27.7659" y="60.2656"/><path d="M79.719,60.2656 L79.719,70.7266 L69.719,80.7266 L27.7659,80.7266" fill="none" style="stroke:#000000;stroke-width:1.5;"/><text fill="#000000" font-family="sans-serif" font-size="15" lengthAdjust="spacing" textLength="41.9531" x="30.7659" y="75.189">setup</text><rect fill="#F1F1F1" height="37.4609" rx="12.5" ry="12.5" style="stroke:#181818;stroke-width:0.5;" width="180" x="37.7659" y="97.7266"/><text fill="#000000" font-family="sans-serif" font-size="15" lengthAdjust="spacing" textLength="113.4155" x="47.7659" y="121.6499">&#129408;.&#129520;      rust.config</text><rect fill="#F1F1F1" height="37.4609" rx="12.5" ry="12.5" style="stroke:#181818;stroke-width:0.5;" width="180" x="37.7659" y="155.1875"/><text fill="#000000" font-family="sans-serif" font-size="15" lengthAdjust="spacing" textLength="133.1982" x="47.7659" y="179.1108">&#129408;.&#128203;      rust.manifest</text><rect fill="#F1F1F1" height="37.4609" rx="12.5" ry="12.5" style="stroke:#181818;stroke-width:0.5;" width="180" x="37.7659" y="212.6484"/><text fill="#000000" font-family="sans-serif" font-size="15" lengthAdjust="spacing" textLength="116.3379" x="47.7659" y="236.5718">&#129408;.&#128188;      rust.fmtcfg</text><rect fill="#F1F1F1" height="37.4609" rx="12.5" ry="12.5" style="stroke:#181818;stroke-width:0.5;" width="180" x="37.7659" y="270.1094"/><text fill="#000000" font-family="sans-serif" font-size="15" lengthAdjust="spacing" textLength="105.6592" x="47.7659" y="294.0327">&#129408;.&#128229;      rust.fetch</text><rect fill="none" height="86.9219" style="stroke:#000000;stroke-width:1.5;" width="200" x="27.7659" y="330.6079"/><path d="M215.6638,330.6079 L215.6638,341.0688 L205.6638,351.0688 L27.7659,351.0688" fill="none" style="stroke:#000000;stroke-width:1.5;"/><text fill="#000000" font-family="sans-serif" font-size="15" lengthAdjust="spacing" textLength="177.8979" x="30.7659" y="345.5313">build (build.preprocess)</text><rect fill="#F1F1F1" height="37.4609" rx="12.5" ry="12.5" style="stroke:#181818;stroke-width:0.5;" width="180" x="37.7659" y="368.0688"/><text fill="#000000" font-family="sans-serif" font-size="15" lengthAdjust="spacing" textLength="117.8247" x="47.7659" y="391.9922">&#129408;.&#128132;      rust.format</text><line style="stroke:#181818;stroke-width:1;" x1="127.7659" x2="127.7659" y1="135.1875" y2="155.1875"/><polygon fill="#181818" points="123.7659,145.1875,127.7659,155.1875,131.7659,145.1875,127.7659,149.1875" style="stroke:#181818;stroke-width:1;"/><line style="stroke:#181818;stroke-width:1;" x1="127.7659" x2="127.7659" y1="192.6484" y2="212.6484"/><polygon fill="#181818" points="123.7659,202.6484,127.7659,212.6484,131.7659,202.6484,127.7659,206.6484" style="stroke:#181818;stroke-width:1;"/><line style="stroke:#181818;stroke-width:1;" x1="127.7659" x2="127.7659" y1="250.1094" y2="270.1094"/><polygon fill="#181818" points="123.7659,260.1094,127.7659,270.1094,131.7659,260.1094,127.7659,264.1094" style="stroke:#181818;stroke-width:1;"/><line style="stroke:#181818;stroke-width:1;" x1="127.7659" x2="127.7659" y1="50.2656" y2="97.7266"/><polygon fill="#181818" points="123.7659,87.7266,127.7659,97.7266,131.7659,87.7266,127.7659,91.7266" style="stroke:#181818;stroke-width:1;"/><line style="stroke:#181818;stroke-width:1;" x1="127.7659" x2="127.7659" y1="307.5703" y2="368.0688"/><polygon fill="#181818" points="123.7659,358.0688,127.7659,368.0688,131.7659,358.0688,127.7659,362.0688" style="stroke:#181818;stroke-width:1;"/><?plantuml-src NO-nJa9144Nx_Oe9bJOFAKmC42fYHqLXOxFkcuM9kxClkxF61o6XiBF33w1IMp_0Z-8J1AHOkCqq9-VU6IPf7OuKElJ80ii9CVdi7wYMEVJkRbPA6w4NadPCUXQrXwM2VUu3ovGM2BrRjLB3xicZE0ZsGJi7ejDp0XqHy1LD5gmVER1hWIp4d0HIoD4WM7BupzcGkLQgqL58A31q4afkEgVA_cxxjQvss-yVEEOWgKnWIxF16V3nNW1UCrbCSeviVWl4UZ7sql5P0YXcFjZ_MMvxokHgk3gUgedOn60mfUlBkPktqXIYrt9G_G40?></g></svg>